<svg xmlns="http://www.w3.org/2000/svg" width="1400" height="900" viewBox="0 0 1400 900" fill="none">
  <defs>
    <linearGradient id="bg" x1="0" x2="1" y1="0" y2="1">
      <stop stop-color="#020617" offset="0"/>
      <stop stop-color="#0f172a" offset="1"/>
    </linearGradient>
    <linearGradient id="frame" x1="0" x2="1" y1="0" y2="1">
      <stop stop-color="#f8fafc" offset="0"/>
      <stop stop-color="#cbd5e1" offset="1"/>
    </linearGradient>
    <linearGradient id="paint" x1="0" x2="1" y1="0" y2="1">
      <stop stop-color="#22d3ee" offset="0"/>
      <stop stop-color="#6366f1" offset="0.5"/>
      <stop stop-color="#22c55e" offset="1"/>
    </linearGradient>
  </defs>
  <rect width="1400" height="900" fill="url(#bg)"/>
  <rect x="200" y="120" width="1000" height="660" rx="32" fill="#0b1224" stroke="#1f2937" stroke-width="3"/>
  <rect x="260" y="180" width="880" height="540" rx="26" fill="url(#frame)" opacity="0.85"/>
  <rect x="310" y="230" width="780" height="440" rx="22" fill="#0f172a" stroke="#1f2937" stroke-width="2"/>
  <path d="M340 630 C460 520, 520 520, 620 640 C760 480, 900 500, 1040 360" stroke="url(#paint)" stroke-width="18" stroke-linecap="round" fill="none" opacity="0.9"/>
  <circle cx="520" cy="430" r="90" fill="#22d3ee" opacity="0.35"/>
  <circle cx="820" cy="410" r="70" fill="#22c55e" opacity="0.35"/>
  <circle cx="950" cy="520" r="55" fill="#6366f1" opacity="0.4"/>
  <rect x="240" y="760" width="920" height="26" rx="12" fill="#cbd5e1" opacity="0.35"/>
  <text x="260" y="782" fill="#cbd5e1" font-family="'Inter', 'Segoe UI', system-ui" font-size="22" font-weight="600" opacity="0.9">Gallery Lot Placeholder — replace with auction artwork photography</text>
</svg>
