<svg xmlns="http://www.w3.org/2000/svg" width="1600" height="900" viewBox="0 0 1600 900" fill="none">
  <defs>
    <linearGradient id="g1" x1="0" x2="1" y1="0" y2="1">
      <stop stop-color="#0f172a" offset="0"/>
      <stop stop-color="#111827" offset="0.35"/>
      <stop stop-color="#0ea5e9" offset="1"/>
    </linearGradient>
    <linearGradient id="g2" x1="0" x2="1" y1="0" y2="1">
      <stop stop-color="#22d3ee" offset="0"/>
      <stop stop-color="#22c55e" offset="1"/>
    </linearGradient>
  </defs>
  <rect width="1600" height="900" fill="#0b1224"/>
  <rect x="80" y="140" width="1440" height="540" rx="32" fill="url(#g1)" opacity="0.85"/>
  <rect x="120" y="180" width="680" height="420" rx="18" fill="#0f172a" stroke="#1f2937" stroke-width="3"/>
  <rect x="840" y="180" width="640" height="200" rx="18" fill="#0f172a" stroke="#1f2937" stroke-width="3"/>
  <rect x="840" y="410" width="640" height="190" rx="18" fill="#0f172a" stroke="#1f2937" stroke-width="3"/>
  <rect x="160" y="220" width="600" height="200" rx="16" fill="#111827" stroke="#1f2937" stroke-width="2"/>
  <rect x="160" y="450" width="380" height="120" rx="14" fill="#111827" stroke="#1f2937" stroke-width="2"/>
  <rect x="560" y="450" width="200" height="120" rx="14" fill="#111827" stroke="#1f2937" stroke-width="2"/>
  <rect x="880" y="220" width="160" height="120" rx="14" fill="#0ea5e9" opacity="0.4"/>
  <rect x="1050" y="220" width="160" height="120" rx="14" fill="#22c55e" opacity="0.35"/>
  <rect x="1220" y="220" width="200" height="120" rx="14" fill="#f8fafc" opacity="0.1"/>
  <rect x="880" y="460" width="220" height="110" rx="14" fill="#0ea5e9" opacity="0.25"/>
  <rect x="1120" y="460" width="140" height="110" rx="14" fill="#22c55e" opacity="0.3"/>
  <rect x="1280" y="460" width="160" height="110" rx="14" fill="#f8fafc" opacity="0.12"/>
  <circle cx="280" cy="640" r="22" fill="#22c55e"/>
  <circle cx="340" cy="640" r="12" fill="#22c55e" opacity="0.7"/>
  <circle cx="400" cy="640" r="8" fill="#22c55e" opacity="0.5"/>
  <circle cx="1180" cy="640" r="18" fill="#22d3ee" opacity="0.9"/>
  <circle cx="1240" cy="640" r="12" fill="#22d3ee" opacity="0.7"/>
  <circle cx="1300" cy="640" r="10" fill="#22d3ee" opacity="0.6"/>
  <rect x="100" y="720" width="1400" height="80" rx="30" fill="url(#g2)" opacity="0.2"/>
  <text x="120" y="770" fill="#cbd5e1" font-family="'Inter', 'Segoe UI', system-ui" font-size="26" font-weight="600" opacity="0.9">Burchard Galleries — Auction Preview Placeholder</text>
</svg>
